<mxfile host="app.diagrams.net" modified="2023-12-13T16:02:46.841Z" agent="Mozilla/5.0 (Macintosh; Intel Mac OS X 10_15_7) AppleWebKit/605.1.15 (KHTML, like Gecko) Version/15.6.1 Safari/605.1.15" etag="fpjV5YD6F9ASo2wQDFf5" version="22.1.8" type="github">
  <diagram id="5McHi9BxwL8mM6UUfLl7" name="Page-1">
    <mxGraphModel dx="104" dy="647" grid="1" gridSize="10" guides="1" tooltips="1" connect="1" arrows="1" fold="1" page="1" pageScale="1" pageWidth="850" pageHeight="1100" background="none" math="0" shadow="0">
      <root>
        <mxCell id="0" />
        <mxCell id="1" parent="0" />
        <mxCell id="vRBI4vWx7eo8pq1-qWPK-2" value="Model of Nepali farmers decision to switch from current production to commercial turmeric production" style="text;whiteSpace=wrap;fontSize=12;fontStyle=1;strokeWidth=1;" parent="1" vertex="1">
          <mxGeometry x="950" y="17" width="560" height="60" as="geometry" />
        </mxCell>
        <mxCell id="vRBI4vWx7eo8pq1-qWPK-3" value="&lt;span style=&quot;color: rgb(0, 0, 0); font-family: Helvetica; font-size: 12px; font-style: italic; font-variant-ligatures: normal; font-variant-caps: normal; letter-spacing: normal; orphans: 2; text-align: left; text-indent: 0px; text-transform: none; widows: 2; word-spacing: 0px; -webkit-text-stroke-width: 0px; background-color: rgb(251, 251, 251); text-decoration-thickness: initial; float: none; display: inline !important;&quot;&gt;A cost benefit model&lt;/span&gt;&lt;span style=&quot;color: rgb(0, 0, 0); font-family: Helvetica; font-size: 12px; font-style: italic; font-variant-ligatures: normal; font-variant-caps: normal; letter-spacing: normal; orphans: 2; text-align: left; text-indent: 0px; text-transform: none; widows: 2; word-spacing: 0px; -webkit-text-stroke-width: 0px; background-color: rgb(251, 251, 251); text-decoration-thickness: initial; float: none; display: inline !important;&quot;&gt;&amp;nbsp;of the expected livelihoods effect&amp;nbsp;&lt;/span&gt;" style="text;whiteSpace=wrap;html=1;fontSize=12;fontStyle=0;strokeWidth=1;" parent="1" vertex="1">
          <mxGeometry x="970" y="59" width="450" height="40" as="geometry" />
        </mxCell>
        <mxCell id="vRBI4vWx7eo8pq1-qWPK-5" value="NPV of turmeric" style="ellipse;whiteSpace=wrap;html=1;fontSize=12;strokeWidth=1;fillColor=#60a917;fontColor=#ffffff;strokeColor=#2D7600;" parent="1" vertex="1">
          <mxGeometry x="1438" y="308" width="80" height="60" as="geometry" />
        </mxCell>
        <mxCell id="vRBI4vWx7eo8pq1-qWPK-17" style="edgeStyle=none;curved=1;rounded=0;orthogonalLoop=1;jettySize=auto;html=1;entryX=0;entryY=0.5;entryDx=0;entryDy=0;fontSize=12;startSize=8;endSize=8;strokeWidth=1;" parent="1" edge="1">
          <mxGeometry relative="1" as="geometry">
            <mxPoint x="860" y="294.5" as="sourcePoint" />
            <mxPoint x="860" y="294.5" as="targetPoint" />
          </mxGeometry>
        </mxCell>
        <mxCell id="vRBI4vWx7eo8pq1-qWPK-29" value="NPV of cereal" style="ellipse;whiteSpace=wrap;html=1;fontSize=12;strokeWidth=1;fillColor=#60a917;fontColor=#ffffff;strokeColor=#2D7600;" parent="1" vertex="1">
          <mxGeometry x="1471" y="540" width="70" height="60" as="geometry" />
        </mxCell>
        <mxCell id="g0W_0NXHWMT82P0ljdfY-27" value="" style="edgeStyle=orthogonalEdgeStyle;rounded=0;orthogonalLoop=1;jettySize=auto;html=1;fillColor=#60a917;strokeColor=#2D7600;" parent="1" source="Bm_euUfFgAgu9yLUH32F-1" target="vRBI4vWx7eo8pq1-qWPK-5" edge="1">
          <mxGeometry relative="1" as="geometry" />
        </mxCell>
        <mxCell id="Bm_euUfFgAgu9yLUH32F-1" value="Revenue(usd/hac/year)" style="ellipse;whiteSpace=wrap;html=1;fillColor=#60a917;fontColor=#ffffff;strokeColor=#2D7600;" parent="1" vertex="1">
          <mxGeometry x="1267" y="340" width="120" height="47.5" as="geometry" />
        </mxCell>
        <mxCell id="g0W_0NXHWMT82P0ljdfY-26" value="" style="edgeStyle=orthogonalEdgeStyle;rounded=0;orthogonalLoop=1;jettySize=auto;html=1;fillColor=#e51400;strokeColor=#B20000;" parent="1" source="Bm_euUfFgAgu9yLUH32F-5" target="vRBI4vWx7eo8pq1-qWPK-5" edge="1">
          <mxGeometry relative="1" as="geometry" />
        </mxCell>
        <mxCell id="Bm_euUfFgAgu9yLUH32F-5" value="Total costs(usd/hac/year)" style="ellipse;whiteSpace=wrap;html=1;fillColor=#60a917;fontColor=#ffffff;strokeColor=#2D7600;" parent="1" vertex="1">
          <mxGeometry x="1267" y="257" width="120" height="43" as="geometry" />
        </mxCell>
        <mxCell id="qbSNNWnGffYOng-eK7Mu-45" value="" style="edgeStyle=orthogonalEdgeStyle;rounded=0;orthogonalLoop=1;jettySize=auto;html=1;fillColor=#e51400;strokeColor=#B20000;" parent="1" source="Bm_euUfFgAgu9yLUH32F-6" target="vRBI4vWx7eo8pq1-qWPK-29" edge="1">
          <mxGeometry relative="1" as="geometry" />
        </mxCell>
        <mxCell id="Bm_euUfFgAgu9yLUH32F-6" value="Total costs(usd/hac/year)" style="ellipse;whiteSpace=wrap;html=1;fillColor=#60a917;fontColor=#ffffff;strokeColor=#2D7600;" parent="1" vertex="1">
          <mxGeometry x="1285" y="523" width="120" height="47" as="geometry" />
        </mxCell>
        <mxCell id="g0W_0NXHWMT82P0ljdfY-28" value="" style="edgeStyle=orthogonalEdgeStyle;rounded=0;orthogonalLoop=1;jettySize=auto;html=1;" parent="1" source="Bm_euUfFgAgu9yLUH32F-8" target="vRBI4vWx7eo8pq1-qWPK-5" edge="1">
          <mxGeometry relative="1" as="geometry" />
        </mxCell>
        <mxCell id="Bm_euUfFgAgu9yLUH32F-8" value="Discount rate(%)" style="ellipse;whiteSpace=wrap;html=1;fillColor=#bac8d3;strokeColor=#23445d;" parent="1" vertex="1">
          <mxGeometry x="1560" y="318" width="120" height="40" as="geometry" />
        </mxCell>
        <mxCell id="Bm_euUfFgAgu9yLUH32F-24" value="" style="endArrow=classic;html=1;rounded=0;" parent="1" edge="1">
          <mxGeometry width="50" height="50" relative="1" as="geometry">
            <mxPoint x="2450" y="1300" as="sourcePoint" />
            <mxPoint x="2500" y="1250" as="targetPoint" />
          </mxGeometry>
        </mxCell>
        <mxCell id="Bm_euUfFgAgu9yLUH32F-32" value="" style="endArrow=classic;html=1;rounded=0;" parent="1" edge="1">
          <mxGeometry width="50" height="50" relative="1" as="geometry">
            <mxPoint x="2370" y="624" as="sourcePoint" />
            <mxPoint x="2420" y="574" as="targetPoint" />
          </mxGeometry>
        </mxCell>
        <mxCell id="qbSNNWnGffYOng-eK7Mu-56" value="" style="edgeStyle=orthogonalEdgeStyle;rounded=0;orthogonalLoop=1;jettySize=auto;html=1;fillColor=#60a917;strokeColor=#2D7600;" parent="1" source="Bm_euUfFgAgu9yLUH32F-40" target="vRBI4vWx7eo8pq1-qWPK-29" edge="1">
          <mxGeometry relative="1" as="geometry" />
        </mxCell>
        <mxCell id="Bm_euUfFgAgu9yLUH32F-40" value="Revenue(usd/hac/year)" style="ellipse;whiteSpace=wrap;html=1;fillColor=#60a917;fontColor=#ffffff;strokeColor=#2D7600;" parent="1" vertex="1">
          <mxGeometry x="1300" y="604" width="130" height="37" as="geometry" />
        </mxCell>
        <mxCell id="qbSNNWnGffYOng-eK7Mu-16" style="edgeStyle=orthogonalEdgeStyle;rounded=0;orthogonalLoop=1;jettySize=auto;html=1;exitX=0.5;exitY=1;exitDx=0;exitDy=0;" parent="1" edge="1">
          <mxGeometry relative="1" as="geometry">
            <mxPoint x="1127" y="641" as="sourcePoint" />
            <mxPoint x="1127" y="641" as="targetPoint" />
          </mxGeometry>
        </mxCell>
        <mxCell id="g0W_0NXHWMT82P0ljdfY-61" value="" style="edgeStyle=orthogonalEdgeStyle;rounded=0;orthogonalLoop=1;jettySize=auto;html=1;fillColor=#60a917;strokeColor=#2D7600;" parent="1" source="qbSNNWnGffYOng-eK7Mu-23" target="Bm_euUfFgAgu9yLUH32F-40" edge="1">
          <mxGeometry relative="1" as="geometry" />
        </mxCell>
        <mxCell id="qbSNNWnGffYOng-eK7Mu-23" value="cereal benefit" style="swimlane;fontStyle=0;childLayout=stackLayout;horizontal=1;startSize=30;horizontalStack=0;resizeParent=1;resizeParentMax=0;resizeLast=0;collapsible=1;marginBottom=0;whiteSpace=wrap;html=1;fillColor=#bac8d3;strokeColor=#23445d;" parent="1" vertex="1">
          <mxGeometry x="1209" y="672.5" width="140" height="110" as="geometry">
            <mxRectangle x="951" y="646.5" width="80" height="30" as="alternateBounds" />
          </mxGeometry>
        </mxCell>
        <mxCell id="qbSNNWnGffYOng-eK7Mu-24" value="maize &amp;nbsp;yield &lt;br&gt;millet yield" style="text;strokeColor=none;fillColor=none;align=left;verticalAlign=middle;spacingLeft=4;spacingRight=4;overflow=hidden;points=[[0,0.5,0,0,0],[1,0.5,0,0,0]];portConstraint=eastwest;rotatable=0;whiteSpace=wrap;html=1;" parent="qbSNNWnGffYOng-eK7Mu-23" vertex="1">
          <mxGeometry y="30" width="140" height="30" as="geometry" />
        </mxCell>
        <mxCell id="qbSNNWnGffYOng-eK7Mu-25" value="animal feed yield firewood yield" style="text;strokeColor=none;fillColor=none;align=left;verticalAlign=middle;spacingLeft=4;spacingRight=4;overflow=hidden;points=[[0,0.5],[1,0.5]];portConstraint=eastwest;rotatable=0;whiteSpace=wrap;html=1;" parent="qbSNNWnGffYOng-eK7Mu-23" vertex="1">
          <mxGeometry y="60" width="140" height="30" as="geometry" />
        </mxCell>
        <mxCell id="qbSNNWnGffYOng-eK7Mu-26" value="food access" style="text;strokeColor=none;fillColor=none;align=left;verticalAlign=middle;spacingLeft=4;spacingRight=4;overflow=hidden;points=[[0,0.5],[1,0.5]];portConstraint=eastwest;rotatable=0;whiteSpace=wrap;html=1;" parent="qbSNNWnGffYOng-eK7Mu-23" vertex="1">
          <mxGeometry y="90" width="140" height="20" as="geometry" />
        </mxCell>
        <mxCell id="g0W_0NXHWMT82P0ljdfY-30" value="" style="edgeStyle=orthogonalEdgeStyle;rounded=0;orthogonalLoop=1;jettySize=auto;html=1;fillColor=#60a917;strokeColor=#2D7600;" parent="1" source="qbSNNWnGffYOng-eK7Mu-44" target="Bm_euUfFgAgu9yLUH32F-1" edge="1">
          <mxGeometry relative="1" as="geometry" />
        </mxCell>
        <mxCell id="qbSNNWnGffYOng-eK7Mu-44" value="crop price(usd/kg)" style="ellipse;whiteSpace=wrap;html=1;fillColor=#bac8d3;strokeColor=#23445d;" parent="1" vertex="1">
          <mxGeometry x="1267" y="418" width="120" height="32" as="geometry" />
        </mxCell>
        <mxCell id="g0W_0NXHWMT82P0ljdfY-25" value="" style="edgeStyle=orthogonalEdgeStyle;rounded=0;orthogonalLoop=1;jettySize=auto;html=1;fillColor=#60a917;strokeColor=#2D7600;" parent="1" source="qbSNNWnGffYOng-eK7Mu-59" target="Bm_euUfFgAgu9yLUH32F-1" edge="1">
          <mxGeometry relative="1" as="geometry" />
        </mxCell>
        <mxCell id="qbSNNWnGffYOng-eK7Mu-59" value="turmeric &amp;nbsp;benefit" style="swimlane;fontStyle=0;childLayout=stackLayout;horizontal=1;startSize=30;horizontalStack=0;resizeParent=1;resizeParentMax=0;resizeLast=0;collapsible=1;marginBottom=0;whiteSpace=wrap;html=1;fillColor=#bac8d3;strokeColor=#23445d;" parent="1" vertex="1">
          <mxGeometry x="1048" y="354" width="140" height="90" as="geometry">
            <mxRectangle x="1048" y="354" width="130" height="30" as="alternateBounds" />
          </mxGeometry>
        </mxCell>
        <mxCell id="qbSNNWnGffYOng-eK7Mu-60" value="Turmeric yield" style="text;strokeColor=none;fillColor=none;align=left;verticalAlign=middle;spacingLeft=4;spacingRight=4;overflow=hidden;points=[[0,0.5],[1,0.5]];portConstraint=eastwest;rotatable=0;whiteSpace=wrap;html=1;" parent="qbSNNWnGffYOng-eK7Mu-59" vertex="1">
          <mxGeometry y="30" width="140" height="30" as="geometry" />
        </mxCell>
        <mxCell id="qbSNNWnGffYOng-eK7Mu-62" value="improve livelihood" style="text;strokeColor=none;fillColor=none;align=left;verticalAlign=middle;spacingLeft=4;spacingRight=4;overflow=hidden;points=[[0,0.5],[1,0.5]];portConstraint=eastwest;rotatable=0;whiteSpace=wrap;html=1;" parent="qbSNNWnGffYOng-eK7Mu-59" vertex="1">
          <mxGeometry y="60" width="140" height="30" as="geometry" />
        </mxCell>
        <mxCell id="g0W_0NXHWMT82P0ljdfY-53" value="" style="edgeStyle=orthogonalEdgeStyle;rounded=0;orthogonalLoop=1;jettySize=auto;html=1;fillColor=#60a917;strokeColor=#2D7600;" parent="1" source="P7z4gR5DvrRTQaax9_9S-4" target="Bm_euUfFgAgu9yLUH32F-6" edge="1">
          <mxGeometry relative="1" as="geometry">
            <Array as="points">
              <mxPoint x="1247" y="520" />
              <mxPoint x="1247" y="547" />
            </Array>
          </mxGeometry>
        </mxCell>
        <mxCell id="P7z4gR5DvrRTQaax9_9S-4" value="cereal maintenance cost(usd/hac/year)" style="swimlane;fontStyle=0;childLayout=stackLayout;horizontal=1;startSize=30;horizontalStack=0;resizeParent=1;resizeParentMax=0;resizeLast=0;collapsible=1;marginBottom=0;whiteSpace=wrap;html=1;fillColor=#bac8d3;strokeColor=#23445d;" parent="1" vertex="1">
          <mxGeometry x="1068" y="498" width="140" height="90" as="geometry">
            <mxRectangle x="1068" y="498" width="170" height="30" as="alternateBounds" />
          </mxGeometry>
        </mxCell>
        <mxCell id="P7z4gR5DvrRTQaax9_9S-5" value="FYM collection" style="text;strokeColor=none;fillColor=none;align=left;verticalAlign=middle;spacingLeft=4;spacingRight=4;overflow=hidden;points=[[0,0.5],[1,0.5]];portConstraint=eastwest;rotatable=0;whiteSpace=wrap;html=1;" parent="P7z4gR5DvrRTQaax9_9S-4" vertex="1">
          <mxGeometry y="30" width="140" height="20" as="geometry" />
        </mxCell>
        <mxCell id="P7z4gR5DvrRTQaax9_9S-6" value="&amp;nbsp;Weeding&lt;br&gt;" style="text;strokeColor=none;fillColor=none;align=left;verticalAlign=middle;spacingLeft=4;spacingRight=4;overflow=hidden;points=[[0,0.5],[1,0.5]];portConstraint=eastwest;rotatable=0;whiteSpace=wrap;html=1;" parent="P7z4gR5DvrRTQaax9_9S-4" vertex="1">
          <mxGeometry y="50" width="140" height="20" as="geometry" />
        </mxCell>
        <mxCell id="P7z4gR5DvrRTQaax9_9S-7" value="plantation" style="text;strokeColor=none;fillColor=none;align=left;verticalAlign=middle;spacingLeft=4;spacingRight=4;overflow=hidden;points=[[0,0.5],[1,0.5]];portConstraint=eastwest;rotatable=0;whiteSpace=wrap;html=1;" parent="P7z4gR5DvrRTQaax9_9S-4" vertex="1">
          <mxGeometry y="70" width="140" height="20" as="geometry" />
        </mxCell>
        <mxCell id="g0W_0NXHWMT82P0ljdfY-52" value="" style="edgeStyle=orthogonalEdgeStyle;rounded=0;orthogonalLoop=1;jettySize=auto;html=1;fillColor=#60a917;strokeColor=#2D7600;" parent="1" edge="1">
          <mxGeometry relative="1" as="geometry">
            <mxPoint x="1178" y="620" as="sourcePoint" />
            <mxPoint x="1290" y="560" as="targetPoint" />
          </mxGeometry>
        </mxCell>
        <mxCell id="P7z4gR5DvrRTQaax9_9S-9" value="cereal harvesting cost(usd/hac/year)" style="swimlane;fontStyle=0;childLayout=stackLayout;horizontal=1;startSize=30;horizontalStack=0;resizeParent=1;resizeParentMax=0;resizeLast=0;collapsible=1;marginBottom=0;whiteSpace=wrap;html=1;fillColor=#bac8d3;strokeColor=#23445d;" parent="1" vertex="1">
          <mxGeometry x="1099" y="600" width="140" height="70" as="geometry">
            <mxRectangle x="1073" y="600" width="160" height="30" as="alternateBounds" />
          </mxGeometry>
        </mxCell>
        <mxCell id="P7z4gR5DvrRTQaax9_9S-11" value="shelling/thresing" style="text;strokeColor=none;fillColor=none;align=left;verticalAlign=middle;spacingLeft=4;spacingRight=4;overflow=hidden;points=[[0,0.5],[1,0.5]];portConstraint=eastwest;rotatable=0;whiteSpace=wrap;html=1;" parent="P7z4gR5DvrRTQaax9_9S-9" vertex="1">
          <mxGeometry y="30" width="140" height="20" as="geometry" />
        </mxCell>
        <mxCell id="P7z4gR5DvrRTQaax9_9S-10" value="cutting" style="text;strokeColor=none;fillColor=none;align=left;verticalAlign=middle;spacingLeft=4;spacingRight=4;overflow=hidden;points=[[0,0.5],[1,0.5]];portConstraint=eastwest;rotatable=0;whiteSpace=wrap;html=1;" parent="P7z4gR5DvrRTQaax9_9S-9" vertex="1">
          <mxGeometry y="50" width="140" height="20" as="geometry" />
        </mxCell>
        <mxCell id="g0W_0NXHWMT82P0ljdfY-24" value="" style="edgeStyle=orthogonalEdgeStyle;rounded=0;orthogonalLoop=1;jettySize=auto;html=1;fillColor=#60a917;strokeColor=#2D7600;" parent="1" source="d5tyBhBD4ZNlllIkALd0-3" target="Bm_euUfFgAgu9yLUH32F-5" edge="1">
          <mxGeometry relative="1" as="geometry" />
        </mxCell>
        <mxCell id="d5tyBhBD4ZNlllIkALd0-3" value="Turmeric Post harvesting cost (usd/hac/year)" style="swimlane;fontStyle=0;childLayout=stackLayout;horizontal=1;startSize=30;horizontalStack=0;resizeParent=1;resizeParentMax=0;resizeLast=0;collapsible=1;marginBottom=0;whiteSpace=wrap;html=1;fillColor=#bac8d3;strokeColor=#23445d;" parent="1" vertex="1">
          <mxGeometry x="904" y="217" width="170" height="130" as="geometry">
            <mxRectangle x="879" y="280" width="200" height="30" as="alternateBounds" />
          </mxGeometry>
        </mxCell>
        <mxCell id="d5tyBhBD4ZNlllIkALd0-6" value="boiling&amp;nbsp;" style="text;strokeColor=none;fillColor=none;align=left;verticalAlign=middle;spacingLeft=4;spacingRight=4;overflow=hidden;points=[[0,0.5],[1,0.5]];portConstraint=eastwest;rotatable=0;whiteSpace=wrap;html=1;" parent="d5tyBhBD4ZNlllIkALd0-3" vertex="1">
          <mxGeometry y="30" width="170" height="20" as="geometry" />
        </mxCell>
        <mxCell id="g0W_0NXHWMT82P0ljdfY-102" value="&amp;nbsp;Drying&amp;nbsp;" style="text;strokeColor=none;fillColor=none;align=left;verticalAlign=middle;spacingLeft=4;spacingRight=4;overflow=hidden;points=[[0,0.5],[1,0.5]];portConstraint=eastwest;rotatable=0;whiteSpace=wrap;html=1;" parent="d5tyBhBD4ZNlllIkALd0-3" vertex="1">
          <mxGeometry y="50" width="170" height="20" as="geometry" />
        </mxCell>
        <mxCell id="g0W_0NXHWMT82P0ljdfY-103" value="Grinding" style="text;strokeColor=none;fillColor=none;align=left;verticalAlign=middle;spacingLeft=4;spacingRight=4;overflow=hidden;points=[[0,0.5],[1,0.5]];portConstraint=eastwest;rotatable=0;whiteSpace=wrap;html=1;" parent="d5tyBhBD4ZNlllIkALd0-3" vertex="1">
          <mxGeometry y="70" width="170" height="20" as="geometry" />
        </mxCell>
        <mxCell id="g0W_0NXHWMT82P0ljdfY-105" value="packaging" style="text;strokeColor=none;fillColor=none;align=left;verticalAlign=middle;spacingLeft=4;spacingRight=4;overflow=hidden;points=[[0,0.5],[1,0.5]];portConstraint=eastwest;rotatable=0;whiteSpace=wrap;html=1;" parent="d5tyBhBD4ZNlllIkALd0-3" vertex="1">
          <mxGeometry y="90" width="170" height="20" as="geometry" />
        </mxCell>
        <mxCell id="g0W_0NXHWMT82P0ljdfY-106" value="storage cost" style="text;strokeColor=none;fillColor=none;align=left;verticalAlign=middle;spacingLeft=4;spacingRight=4;overflow=hidden;points=[[0,0.5],[1,0.5]];portConstraint=eastwest;rotatable=0;whiteSpace=wrap;html=1;" parent="d5tyBhBD4ZNlllIkALd0-3" vertex="1">
          <mxGeometry y="110" width="170" height="20" as="geometry" />
        </mxCell>
        <mxCell id="g0W_0NXHWMT82P0ljdfY-13" value="" style="edgeStyle=orthogonalEdgeStyle;rounded=0;orthogonalLoop=1;jettySize=auto;html=1;fillColor=#60a917;strokeColor=#2D7600;" parent="1" source="d5tyBhBD4ZNlllIkALd0-7" target="Bm_euUfFgAgu9yLUH32F-5" edge="1">
          <mxGeometry relative="1" as="geometry">
            <Array as="points">
              <mxPoint x="1477" y="220" />
              <mxPoint x="1327" y="220" />
            </Array>
          </mxGeometry>
        </mxCell>
        <mxCell id="d5tyBhBD4ZNlllIkALd0-7" value="Turmeric &amp;nbsp;implementation cost(use/hac/year)" style="swimlane;fontStyle=0;childLayout=stackLayout;horizontal=1;startSize=30;horizontalStack=0;resizeParent=1;resizeParentMax=0;resizeLast=0;collapsible=1;marginBottom=0;whiteSpace=wrap;html=1;fillColor=#bac8d3;strokeColor=#23445d;" parent="1" vertex="1">
          <mxGeometry x="1387" y="176" width="136.5" height="70" as="geometry">
            <mxRectangle x="1380" y="150" width="193" height="30" as="alternateBounds" />
          </mxGeometry>
        </mxCell>
        <mxCell id="g0W_0NXHWMT82P0ljdfY-39" value="Seed &amp;nbsp;&amp;nbsp;&lt;br&gt;&amp;nbsp;&lt;br&gt;&amp;nbsp;" style="text;strokeColor=none;fillColor=none;align=left;verticalAlign=middle;spacingLeft=4;spacingRight=4;overflow=hidden;points=[[0,0.5],[1,0.5]];portConstraint=eastwest;rotatable=0;whiteSpace=wrap;html=1;" parent="d5tyBhBD4ZNlllIkALd0-7" vertex="1">
          <mxGeometry y="30" width="136.5" height="20" as="geometry" />
        </mxCell>
        <mxCell id="d5tyBhBD4ZNlllIkALd0-9" value="Land preparation" style="text;strokeColor=none;fillColor=none;align=left;verticalAlign=middle;spacingLeft=4;spacingRight=4;overflow=hidden;points=[[0,0.5],[1,0.5]];portConstraint=eastwest;rotatable=0;whiteSpace=wrap;html=1;" parent="d5tyBhBD4ZNlllIkALd0-7" vertex="1">
          <mxGeometry y="50" width="136.5" height="20" as="geometry" />
        </mxCell>
        <mxCell id="d5tyBhBD4ZNlllIkALd0-12" value="Turmeric maintenance cost(usd/hac/year)" style="swimlane;fontStyle=0;childLayout=stackLayout;horizontal=1;startSize=30;horizontalStack=0;resizeParent=1;resizeParentMax=0;resizeLast=0;collapsible=1;marginBottom=0;whiteSpace=wrap;html=1;fillColor=#bac8d3;strokeColor=#23445d;" parent="1" vertex="1">
          <mxGeometry x="930" y="99" width="140" height="110" as="geometry">
            <mxRectangle x="930" y="99" width="180" height="30" as="alternateBounds" />
          </mxGeometry>
        </mxCell>
        <mxCell id="d5tyBhBD4ZNlllIkALd0-13" value="FYM &lt;br&gt;" style="text;strokeColor=none;fillColor=none;align=left;verticalAlign=middle;spacingLeft=4;spacingRight=4;overflow=hidden;points=[[0,0.5],[1,0.5]];portConstraint=eastwest;rotatable=0;whiteSpace=wrap;html=1;" parent="d5tyBhBD4ZNlllIkALd0-12" vertex="1">
          <mxGeometry y="30" width="140" height="20" as="geometry" />
        </mxCell>
        <mxCell id="d5tyBhBD4ZNlllIkALd0-14" value="&amp;nbsp;Weeding&lt;br&gt;" style="text;strokeColor=none;fillColor=none;align=left;verticalAlign=middle;spacingLeft=4;spacingRight=4;overflow=hidden;points=[[0,0.5],[1,0.5]];portConstraint=eastwest;rotatable=0;whiteSpace=wrap;html=1;" parent="d5tyBhBD4ZNlllIkALd0-12" vertex="1">
          <mxGeometry y="50" width="140" height="20" as="geometry" />
        </mxCell>
        <mxCell id="d5tyBhBD4ZNlllIkALd0-15" value="Plantation" style="text;strokeColor=none;fillColor=none;align=left;verticalAlign=middle;spacingLeft=4;spacingRight=4;overflow=hidden;points=[[0,0.5],[1,0.5]];portConstraint=eastwest;rotatable=0;whiteSpace=wrap;html=1;" parent="d5tyBhBD4ZNlllIkALd0-12" vertex="1">
          <mxGeometry y="70" width="140" height="20" as="geometry" />
        </mxCell>
        <mxCell id="d5tyBhBD4ZNlllIkALd0-23" value="Mulch collection" style="text;strokeColor=none;fillColor=none;align=left;verticalAlign=middle;spacingLeft=4;spacingRight=4;overflow=hidden;points=[[0,0.5],[1,0.5]];portConstraint=eastwest;rotatable=0;whiteSpace=wrap;html=1;" parent="d5tyBhBD4ZNlllIkALd0-12" vertex="1">
          <mxGeometry y="90" width="140" height="20" as="geometry" />
        </mxCell>
        <mxCell id="g0W_0NXHWMT82P0ljdfY-57" value="" style="edgeStyle=orthogonalEdgeStyle;rounded=0;orthogonalLoop=1;jettySize=auto;html=1;fillColor=#60a917;strokeColor=#2D7600;" parent="1" source="d5tyBhBD4ZNlllIkALd0-29" target="Bm_euUfFgAgu9yLUH32F-6" edge="1">
          <mxGeometry relative="1" as="geometry" />
        </mxCell>
        <mxCell id="d5tyBhBD4ZNlllIkALd0-29" value="cereal Post harvesting cost(usd/hac/year)" style="swimlane;fontStyle=0;childLayout=stackLayout;horizontal=1;startSize=30;horizontalStack=0;resizeParent=1;resizeParentMax=0;resizeLast=0;collapsible=1;marginBottom=0;whiteSpace=wrap;html=1;fillColor=#bac8d3;strokeColor=#23445d;" parent="1" vertex="1">
          <mxGeometry x="870" y="540" width="140" height="70" as="geometry">
            <mxRectangle x="870" y="540" width="165" height="30" as="alternateBounds" />
          </mxGeometry>
        </mxCell>
        <mxCell id="d5tyBhBD4ZNlllIkALd0-30" value="cleaning" style="text;strokeColor=none;fillColor=none;align=left;verticalAlign=middle;spacingLeft=4;spacingRight=4;overflow=hidden;points=[[0,0.5],[1,0.5]];portConstraint=eastwest;rotatable=0;whiteSpace=wrap;html=1;" parent="d5tyBhBD4ZNlllIkALd0-29" vertex="1">
          <mxGeometry y="30" width="140" height="20" as="geometry" />
        </mxCell>
        <mxCell id="d5tyBhBD4ZNlllIkALd0-31" value="storage cost" style="text;strokeColor=none;fillColor=none;align=left;verticalAlign=middle;spacingLeft=4;spacingRight=4;overflow=hidden;points=[[0,0.5],[1,0.5]];portConstraint=eastwest;rotatable=0;whiteSpace=wrap;html=1;" parent="d5tyBhBD4ZNlllIkALd0-29" vertex="1">
          <mxGeometry y="50" width="140" height="20" as="geometry" />
        </mxCell>
        <mxCell id="g0W_0NXHWMT82P0ljdfY-23" value="" style="edgeStyle=orthogonalEdgeStyle;rounded=0;orthogonalLoop=1;jettySize=auto;html=1;fillColor=#60a917;strokeColor=#2D7600;" parent="1" source="d5tyBhBD4ZNlllIkALd0-17" target="Bm_euUfFgAgu9yLUH32F-5" edge="1">
          <mxGeometry relative="1" as="geometry" />
        </mxCell>
        <mxCell id="d5tyBhBD4ZNlllIkALd0-17" value="Turmeric harvesting cost(usd/hac/year)" style="swimlane;fontStyle=0;childLayout=stackLayout;horizontal=1;startSize=30;horizontalStack=0;resizeParent=1;resizeParentMax=0;resizeLast=0;collapsible=1;marginBottom=0;whiteSpace=wrap;html=1;fillColor=#bac8d3;strokeColor=#23445d;" parent="1" vertex="1">
          <mxGeometry x="1078" y="136" width="140" height="110" as="geometry">
            <mxRectangle x="1078" y="160" width="170" height="30" as="alternateBounds" />
          </mxGeometry>
        </mxCell>
        <mxCell id="d5tyBhBD4ZNlllIkALd0-18" value="Extracting turmeric" style="text;strokeColor=none;fillColor=none;align=left;verticalAlign=middle;spacingLeft=4;spacingRight=4;overflow=hidden;points=[[0,0.5],[1,0.5]];portConstraint=eastwest;rotatable=0;whiteSpace=wrap;html=1;" parent="d5tyBhBD4ZNlllIkALd0-17" vertex="1">
          <mxGeometry y="30" width="140" height="20" as="geometry" />
        </mxCell>
        <mxCell id="d5tyBhBD4ZNlllIkALd0-19" value="Removing roots" style="text;strokeColor=none;fillColor=none;align=left;verticalAlign=middle;spacingLeft=4;spacingRight=4;overflow=hidden;points=[[0,0.5],[1,0.5]];portConstraint=eastwest;rotatable=0;whiteSpace=wrap;html=1;" parent="d5tyBhBD4ZNlllIkALd0-17" vertex="1">
          <mxGeometry y="50" width="140" height="20" as="geometry" />
        </mxCell>
        <mxCell id="d5tyBhBD4ZNlllIkALd0-21" value="sorting seeds" style="text;strokeColor=none;fillColor=none;align=left;verticalAlign=middle;spacingLeft=4;spacingRight=4;overflow=hidden;points=[[0,0.5],[1,0.5]];portConstraint=eastwest;rotatable=0;whiteSpace=wrap;html=1;" parent="d5tyBhBD4ZNlllIkALd0-17" vertex="1">
          <mxGeometry y="70" width="140" height="20" as="geometry" />
        </mxCell>
        <mxCell id="d5tyBhBD4ZNlllIkALd0-22" value="gathering" style="text;strokeColor=none;fillColor=none;align=left;verticalAlign=middle;spacingLeft=4;spacingRight=4;overflow=hidden;points=[[0,0.5],[1,0.5]];portConstraint=eastwest;rotatable=0;whiteSpace=wrap;html=1;" parent="d5tyBhBD4ZNlllIkALd0-17" vertex="1">
          <mxGeometry y="90" width="140" height="20" as="geometry" />
        </mxCell>
        <mxCell id="g0W_0NXHWMT82P0ljdfY-34" value="" style="edgeStyle=orthogonalEdgeStyle;rounded=0;orthogonalLoop=1;jettySize=auto;html=1;" parent="1" source="g0W_0NXHWMT82P0ljdfY-31" target="vRBI4vWx7eo8pq1-qWPK-29" edge="1">
          <mxGeometry relative="1" as="geometry" />
        </mxCell>
        <mxCell id="g0W_0NXHWMT82P0ljdfY-31" value="Discount rate(%)" style="ellipse;whiteSpace=wrap;html=1;fillColor=#bac8d3;strokeColor=#23445d;" parent="1" vertex="1">
          <mxGeometry x="1560" y="550" width="120" height="40" as="geometry" />
        </mxCell>
        <mxCell id="g0W_0NXHWMT82P0ljdfY-59" value="" style="edgeStyle=orthogonalEdgeStyle;rounded=0;orthogonalLoop=1;jettySize=auto;html=1;fillColor=#60a917;strokeColor=#2D7600;" parent="1" source="g0W_0NXHWMT82P0ljdfY-32" target="Bm_euUfFgAgu9yLUH32F-40" edge="1">
          <mxGeometry relative="1" as="geometry" />
        </mxCell>
        <mxCell id="g0W_0NXHWMT82P0ljdfY-32" value="crop price(usd/kg)" style="ellipse;whiteSpace=wrap;html=1;fillColor=#bac8d3;strokeColor=#23445d;" parent="1" vertex="1">
          <mxGeometry x="1410" y="686.5" width="120" height="30" as="geometry" />
        </mxCell>
        <mxCell id="g0W_0NXHWMT82P0ljdfY-55" value="" style="edgeStyle=orthogonalEdgeStyle;rounded=0;orthogonalLoop=1;jettySize=auto;html=1;fillColor=#60a917;strokeColor=#2D7600;" parent="1" source="g0W_0NXHWMT82P0ljdfY-41" target="Bm_euUfFgAgu9yLUH32F-6" edge="1">
          <mxGeometry relative="1" as="geometry">
            <Array as="points">
              <mxPoint x="1240" y="490" />
              <mxPoint x="1240" y="547" />
            </Array>
          </mxGeometry>
        </mxCell>
        <mxCell id="g0W_0NXHWMT82P0ljdfY-41" value="cereal&lt;br&gt;&amp;nbsp; implementation cost(usd/hac/year)" style="swimlane;fontStyle=0;childLayout=stackLayout;horizontal=1;startSize=40;horizontalStack=0;resizeParent=1;resizeParentMax=0;resizeLast=0;collapsible=1;marginBottom=0;whiteSpace=wrap;html=1;fillColor=#bac8d3;strokeColor=#23445d;" parent="1" vertex="1">
          <mxGeometry x="870" y="450" width="140" height="80" as="geometry">
            <mxRectangle x="870" y="450" width="166" height="30" as="alternateBounds" />
          </mxGeometry>
        </mxCell>
        <mxCell id="g0W_0NXHWMT82P0ljdfY-45" value="Seed &amp;nbsp;&amp;nbsp;&lt;br&gt;&amp;nbsp;&lt;br&gt;&amp;nbsp;" style="text;strokeColor=none;fillColor=none;align=left;verticalAlign=middle;spacingLeft=4;spacingRight=4;overflow=hidden;points=[[0,0.5],[1,0.5]];portConstraint=eastwest;rotatable=0;whiteSpace=wrap;html=1;" parent="g0W_0NXHWMT82P0ljdfY-41" vertex="1">
          <mxGeometry y="40" width="140" height="20" as="geometry" />
        </mxCell>
        <mxCell id="g0W_0NXHWMT82P0ljdfY-46" value="Land preparation" style="text;strokeColor=none;fillColor=none;align=left;verticalAlign=middle;spacingLeft=4;spacingRight=4;overflow=hidden;points=[[0,0.5],[1,0.5]];portConstraint=eastwest;rotatable=0;whiteSpace=wrap;html=1;" parent="g0W_0NXHWMT82P0ljdfY-41" vertex="1">
          <mxGeometry y="60" width="140" height="20" as="geometry" />
        </mxCell>
        <mxCell id="g0W_0NXHWMT82P0ljdfY-62" value="turmeric risk (%)" style="swimlane;fontStyle=0;childLayout=stackLayout;horizontal=1;startSize=30;horizontalStack=0;resizeParent=1;resizeParentMax=0;resizeLast=0;collapsible=1;marginBottom=0;whiteSpace=wrap;html=1;fillColor=#bac8d3;strokeColor=#23445d;" parent="1" vertex="1">
          <mxGeometry x="860" y="374" width="140" height="70" as="geometry">
            <mxRectangle x="860" y="374" width="110" height="30" as="alternateBounds" />
          </mxGeometry>
        </mxCell>
        <mxCell id="g0W_0NXHWMT82P0ljdfY-63" value="extreme climatic events" style="text;strokeColor=none;fillColor=none;align=left;verticalAlign=middle;spacingLeft=4;spacingRight=4;overflow=hidden;points=[[0,0.5],[1,0.5]];portConstraint=eastwest;rotatable=0;whiteSpace=wrap;html=1;" parent="g0W_0NXHWMT82P0ljdfY-62" vertex="1">
          <mxGeometry y="30" width="140" height="20" as="geometry" />
        </mxCell>
        <mxCell id="g0W_0NXHWMT82P0ljdfY-64" value="disease pest" style="text;strokeColor=none;fillColor=none;align=left;verticalAlign=middle;spacingLeft=4;spacingRight=4;overflow=hidden;points=[[0,0.5],[1,0.5]];portConstraint=eastwest;rotatable=0;whiteSpace=wrap;html=1;" parent="g0W_0NXHWMT82P0ljdfY-62" vertex="1">
          <mxGeometry y="50" width="140" height="20" as="geometry" />
        </mxCell>
        <mxCell id="g0W_0NXHWMT82P0ljdfY-80" value="" style="edgeStyle=orthogonalEdgeStyle;rounded=0;orthogonalLoop=1;jettySize=auto;html=1;" parent="1" source="g0W_0NXHWMT82P0ljdfY-67" target="qbSNNWnGffYOng-eK7Mu-26" edge="1">
          <mxGeometry relative="1" as="geometry" />
        </mxCell>
        <mxCell id="g0W_0NXHWMT82P0ljdfY-67" value="maize risk(%)" style="swimlane;fontStyle=0;childLayout=stackLayout;horizontal=1;startSize=30;horizontalStack=0;resizeParent=1;resizeParentMax=0;resizeLast=0;collapsible=1;marginBottom=0;whiteSpace=wrap;html=1;fillColor=#bac8d3;strokeColor=#23445d;" parent="1" vertex="1">
          <mxGeometry x="1001" y="696.5" width="140" height="90" as="geometry">
            <mxRectangle x="750" y="666.5" width="90" height="30" as="alternateBounds" />
          </mxGeometry>
        </mxCell>
        <mxCell id="g0W_0NXHWMT82P0ljdfY-68" value="extreme climatic events" style="text;strokeColor=none;fillColor=none;align=left;verticalAlign=middle;spacingLeft=4;spacingRight=4;overflow=hidden;points=[[0,0.5],[1,0.5]];portConstraint=eastwest;rotatable=0;whiteSpace=wrap;html=1;" parent="g0W_0NXHWMT82P0ljdfY-67" vertex="1">
          <mxGeometry y="30" width="140" height="20" as="geometry" />
        </mxCell>
        <mxCell id="g0W_0NXHWMT82P0ljdfY-69" value="disease pest" style="text;strokeColor=none;fillColor=none;align=left;verticalAlign=middle;spacingLeft=4;spacingRight=4;overflow=hidden;points=[[0,0.5],[1,0.5]];portConstraint=eastwest;rotatable=0;whiteSpace=wrap;html=1;" parent="g0W_0NXHWMT82P0ljdfY-67" vertex="1">
          <mxGeometry y="50" width="140" height="20" as="geometry" />
        </mxCell>
        <mxCell id="g0W_0NXHWMT82P0ljdfY-70" value="wild animal attack" style="text;strokeColor=none;fillColor=none;align=left;verticalAlign=middle;spacingLeft=4;spacingRight=4;overflow=hidden;points=[[0,0.5],[1,0.5]];portConstraint=eastwest;rotatable=0;whiteSpace=wrap;html=1;" parent="g0W_0NXHWMT82P0ljdfY-67" vertex="1">
          <mxGeometry y="70" width="140" height="20" as="geometry" />
        </mxCell>
        <mxCell id="g0W_0NXHWMT82P0ljdfY-71" style="edgeStyle=orthogonalEdgeStyle;rounded=0;orthogonalLoop=1;jettySize=auto;html=1;exitX=0.5;exitY=1;exitDx=0;exitDy=0;" parent="1" source="d5tyBhBD4ZNlllIkALd0-3" target="d5tyBhBD4ZNlllIkALd0-3" edge="1">
          <mxGeometry relative="1" as="geometry" />
        </mxCell>
        <mxCell id="g0W_0NXHWMT82P0ljdfY-101" value="" style="edgeStyle=orthogonalEdgeStyle;rounded=0;orthogonalLoop=1;jettySize=auto;html=1;fillColor=#e51400;strokeColor=#B20000;" parent="1" source="g0W_0NXHWMT82P0ljdfY-77" target="qbSNNWnGffYOng-eK7Mu-44" edge="1">
          <mxGeometry relative="1" as="geometry" />
        </mxCell>
        <mxCell id="g0W_0NXHWMT82P0ljdfY-77" value="market access" style="ellipse;whiteSpace=wrap;html=1;fillColor=#bac8d3;strokeColor=#23445d;" parent="1" vertex="1">
          <mxGeometry x="1467" y="418" width="120" height="32" as="geometry" />
        </mxCell>
        <mxCell id="g0W_0NXHWMT82P0ljdfY-79" value="" style="edgeStyle=orthogonalEdgeStyle;rounded=0;orthogonalLoop=1;jettySize=auto;html=1;" parent="1" source="g0W_0NXHWMT82P0ljdfY-63" target="qbSNNWnGffYOng-eK7Mu-62" edge="1">
          <mxGeometry relative="1" as="geometry" />
        </mxCell>
        <mxCell id="g0W_0NXHWMT82P0ljdfY-85" value="legend" style="swimlane;fontStyle=0;childLayout=stackLayout;horizontal=1;startSize=30;horizontalStack=0;resizeParent=1;resizeParentMax=0;resizeLast=0;collapsible=1;marginBottom=0;whiteSpace=wrap;html=1;" parent="1" vertex="1">
          <mxGeometry x="1553" y="705" width="150" height="180" as="geometry" />
        </mxCell>
        <mxCell id="g0W_0NXHWMT82P0ljdfY-86" value="estimated variables" style="text;strokeColor=#666666;fillColor=#f5f5f5;align=left;verticalAlign=middle;spacingLeft=4;spacingRight=4;overflow=hidden;points=[[0,0.5],[1,0.5]];portConstraint=eastwest;rotatable=0;whiteSpace=wrap;html=1;gradientColor=#b3b3b3;" parent="g0W_0NXHWMT82P0ljdfY-85" vertex="1">
          <mxGeometry y="30" width="150" height="30" as="geometry" />
        </mxCell>
        <mxCell id="g0W_0NXHWMT82P0ljdfY-87" value="calculated variables" style="text;strokeColor=#B20000;fillColor=#e51400;align=left;verticalAlign=middle;spacingLeft=4;spacingRight=4;overflow=hidden;points=[[0,0.5],[1,0.5]];portConstraint=eastwest;rotatable=0;whiteSpace=wrap;html=1;fontColor=#ffffff;" parent="g0W_0NXHWMT82P0ljdfY-85" vertex="1">
          <mxGeometry y="60" width="150" height="30" as="geometry" />
        </mxCell>
        <mxCell id="g0W_0NXHWMT82P0ljdfY-98" value="black arrow=modulating" style="text;strokeColor=none;fillColor=none;align=left;verticalAlign=middle;spacingLeft=4;spacingRight=4;overflow=hidden;points=[[0,0.5],[1,0.5]];portConstraint=eastwest;rotatable=0;whiteSpace=wrap;html=1;" parent="g0W_0NXHWMT82P0ljdfY-85" vertex="1">
          <mxGeometry y="90" width="150" height="30" as="geometry" />
        </mxCell>
        <mxCell id="g0W_0NXHWMT82P0ljdfY-99" value="green arrow=positive" style="text;strokeColor=none;fillColor=none;align=left;verticalAlign=middle;spacingLeft=4;spacingRight=4;overflow=hidden;points=[[0,0.5],[1,0.5]];portConstraint=eastwest;rotatable=0;whiteSpace=wrap;html=1;" parent="g0W_0NXHWMT82P0ljdfY-85" vertex="1">
          <mxGeometry y="120" width="150" height="30" as="geometry" />
        </mxCell>
        <mxCell id="g0W_0NXHWMT82P0ljdfY-100" value="red arrow=negative" style="text;strokeColor=none;fillColor=none;align=left;verticalAlign=middle;spacingLeft=4;spacingRight=4;overflow=hidden;points=[[0,0.5],[1,0.5]];portConstraint=eastwest;rotatable=0;whiteSpace=wrap;html=1;" parent="g0W_0NXHWMT82P0ljdfY-85" vertex="1">
          <mxGeometry y="150" width="150" height="30" as="geometry" />
        </mxCell>
      </root>
    </mxGraphModel>
  </diagram>
</mxfile>
